<svg width="442" height="120" viewBox="0 0 442 120" fill="none" xmlns="http://www.w3.org/2000/svg">
<path d="M140.369 102.582C139.862 105.519 138.645 108.152 136.921 110.582C135.095 113.013 132.864 114.937 130.024 116.354C127.184 117.772 124.141 118.481 120.592 118.481C117.143 118.481 114.202 117.772 111.971 116.354C109.739 114.937 108.218 113.013 107.407 110.582C106.595 108.152 106.392 105.519 107.001 102.684C107.508 99.9494 108.624 97.3165 110.246 94.8861C111.869 92.4557 114.101 90.4304 116.94 88.9114C119.78 87.3924 123.026 86.5823 126.778 86.5823C130.125 86.5823 132.965 87.2911 135.196 88.7089C137.428 90.1266 139.05 92.0506 139.862 94.481C140.775 96.8101 140.876 99.5443 140.369 102.582ZM132.458 97.924C132.052 96.5063 131.241 95.3924 130.024 94.5823C128.807 93.7722 127.285 93.3671 125.46 93.3671C123.634 93.3671 122.011 93.7722 120.49 94.481C118.969 95.2911 117.752 96.3038 116.737 97.7215C115.723 99.1392 115.115 100.658 114.81 102.481C114.506 104.203 114.506 105.823 115.013 107.139C115.52 108.557 116.332 109.57 117.549 110.38C118.766 111.089 120.186 111.494 121.91 111.494C124.547 111.494 126.88 110.684 128.908 109.063C130.835 107.443 132.154 105.215 132.661 102.38C132.965 100.861 132.864 99.3418 132.458 97.924ZM100.814 98.6329C99.7999 99.8481 98.5828 100.759 97.1629 101.266C99.1914 101.975 100.611 102.987 101.423 104.405C102.234 105.823 102.437 107.443 102.133 109.367C101.524 112.608 100.003 114.835 97.5686 116.152C95.1345 117.468 92.0918 118.076 88.3391 118.076H75.3571L78.8054 99.5443L87.9335 92.4557H80.1239L81.1381 86.9873H93.9174C97.0615 86.9873 99.4956 87.6962 101.017 89.0127C102.538 90.3291 103.147 92.1519 102.741 94.481C102.538 96 101.828 97.4177 100.814 98.6329ZM83.8765 113.215H87.832C91.8889 113.215 94.1202 111.797 94.6274 108.962C95.1345 106.127 93.4103 104.608 89.3534 104.608H85.3979L83.8765 113.215ZM94.7288 93.7721C94.1202 93.1646 93.0046 92.8608 91.3818 92.8608H87.832L86.3107 99.9494H89.5562C91.179 99.9494 92.4975 99.6456 93.5117 98.9367C94.4245 98.3291 95.1345 97.2152 95.3373 95.7975C95.5402 94.3797 95.4387 94.3797 94.7288 93.7721ZM69.6774 110.582C67.8518 113.013 65.6205 114.937 62.7806 116.354C59.9408 117.772 56.8981 118.481 53.3483 118.481C49.9 118.481 46.9587 117.772 44.7274 116.354C42.4961 114.937 40.9748 113.013 40.1634 110.582C39.7577 109.266 39.4534 107.949 39.4534 106.532L48.3786 99.6456H48.48C48.0744 100.557 47.6687 101.57 47.4658 102.684C47.1615 104.405 47.1615 106.025 47.6687 107.342C48.1758 108.759 48.9872 109.772 50.2042 110.582C51.4213 111.291 52.8412 111.696 54.5654 111.696C57.2024 111.696 59.5351 110.886 61.5636 109.266C63.4906 107.646 64.8091 105.418 65.3162 102.582C65.6205 100.962 65.519 99.443 65.1134 98.0253C64.7077 96.6076 63.8963 95.4937 62.6792 94.6835C61.4621 93.8734 59.9408 93.4684 58.1152 93.4684C57.6081 93.4684 57.2024 93.4684 56.6953 93.5696H44.1189C45.6402 91.7468 47.5672 90.2278 49.7985 88.9114C52.6384 87.3924 55.8839 86.5823 59.6365 86.5823C62.9835 86.5823 65.8233 87.2911 68.0546 88.7089C70.2859 90.1266 71.9087 92.0506 72.7201 94.481C73.6329 96.9114 73.7343 99.6456 73.2272 102.582C72.6186 105.519 71.4016 108.152 69.6774 110.582ZM24.24 118.076L26.5727 105.519H12.0693L9.73658 118.076H2.12988L8.0124 86.9873H15.6191L13.3878 99.038H27.8912L30.1225 86.9873H37.7292L31.8467 118.076H24.24Z" fill="white"/>
<path fill-rule="evenodd" clip-rule="evenodd" d="M439.059 96.2025C438.856 97.9241 438.349 99.443 437.436 100.861C436.523 102.278 435.205 103.291 433.481 104.101C431.756 104.911 429.829 105.316 427.395 105.316H421.918L420.701 117.266H413.095L416.137 86.9873H428.815C432.263 86.9873 434.9 87.7975 436.726 89.4177C438.552 91.038 439.363 93.2658 439.059 96.2025ZM430.438 93.1646C429.728 92.557 428.511 92.2532 426.787 92.2532H423.338L422.527 100.253H426.28C429.322 100.253 431.046 98.9367 431.351 96.3038C431.452 94.7848 431.148 93.7722 430.438 93.1646ZM396.867 92.3544L396.157 99.038H408.531L408.023 104.506H395.65L394.94 111.899H408.226L407.719 117.367H386.826L388.855 97.7215L395.548 92.4557H389.362L389.869 86.9873H410.458L409.951 92.4557H396.867V92.3544ZM378.509 110.684C375.771 112.81 372.018 114.025 367.454 114.127L367.049 117.671H359.746L360.152 114.127C357.211 114.025 354.675 113.519 352.647 112.506C350.618 111.494 348.995 110.076 347.981 108.354C346.967 106.532 346.561 104.506 346.866 102.076C347.271 98.5317 348.793 95.7975 351.531 93.6709C354.269 91.5443 357.921 90.4304 362.586 90.2279L362.992 86.6835H370.294L369.889 90.2279C374.453 90.4304 377.901 91.5443 380.234 93.6709C382.566 95.7975 383.581 98.5317 383.175 102.076C382.769 105.62 381.248 108.456 378.509 110.684ZM356.704 97.3165C355.385 98.4304 354.675 99.9494 354.472 102.076C354.067 106.025 356.095 108.253 360.659 108.557L361.978 95.6962C359.746 95.6962 358.022 96.3038 356.704 97.3165ZM374.25 97.4177C373.235 96.3038 371.511 95.6962 369.28 95.6962L367.962 108.557C370.193 108.557 372.018 107.949 373.235 106.835C374.554 105.722 375.264 104.203 375.467 102.177C375.771 100.051 375.365 98.5316 374.25 97.4177ZM340.07 93.4684C338.549 92.962 336.926 92.6582 335.202 92.6582C333.072 92.6582 331.145 93.0633 329.421 93.9747C327.798 94.8861 326.48 96 325.567 97.519C324.654 98.9367 324.045 100.557 323.944 102.278C323.741 104 324.046 105.519 324.654 106.937C325.263 108.354 326.378 109.468 327.798 110.278C329.218 111.089 331.044 111.494 333.072 111.494C336.622 111.494 340.07 110.38 343.62 108.152L342.91 114.937C339.462 116.658 335.506 117.57 331.145 117.57C327.798 117.57 324.857 116.861 322.524 115.544C320.191 114.228 318.366 112.304 317.352 109.975C316.236 107.646 315.83 105.013 316.135 102.076C316.439 98.9367 317.453 96.2025 319.177 93.8734C320.901 91.5443 323.031 89.7215 325.668 88.4051C328.305 87.1899 331.246 86.481 334.492 86.481C338.143 86.481 341.794 87.2911 345.446 88.8101L344.736 95.7975C343.113 94.8861 341.592 94.076 340.07 93.4684ZM301.935 117.266L303.152 105.013H288.649L287.432 117.266H279.825L282.868 86.9873H290.475L289.258 98.7342H303.761L304.978 86.9873H312.585L309.542 117.266H301.935ZM266.742 110.278H253.861L250.311 117.266H242.603L258.729 86.8861H266.64L276.783 117.266H269.074L266.742 110.278ZM261.873 94.3797L256.295 105.418H265.22L261.873 94.3797ZM243.516 100.861C242.502 102.278 241.082 103.291 239.256 104.101C237.532 104.911 235.402 105.316 233.069 105.316H227.593L225.26 117.266H220.493L223.536 86.9873H236.315C239.763 86.9873 242.299 87.7975 244.023 89.4177C245.646 91.038 246.153 93.2658 245.646 96.2025C245.24 97.9241 244.53 99.443 243.516 100.861ZM237.228 93.1646C236.619 92.557 235.402 92.2532 233.678 92.2532H230.23L228.708 100.253H232.461C235.503 100.253 237.329 98.9367 237.836 96.3038C238.14 94.7848 237.938 93.7722 237.228 93.1646ZM208.221 93.2658L203.758 117.266H196.151L199.397 99.9494L207.815 93.4684H200.614V93.3671H189.863L190.472 87.0886H219.58L218.972 93.3671H208.221V93.2658Z" fill="white"/>
<path fill-rule="evenodd" clip-rule="evenodd" d="M212.481 4.55696L163.291 117.671L169.782 40.7089L212.481 4.55696Z" fill="url(#paint0_linear_57_287)"/>
<path fill-rule="evenodd" clip-rule="evenodd" d="M163.088 117.468L147.874 59.3418L167.347 42.7342L163.088 117.468Z" fill="url(#paint1_linear_57_287)"/>
<path fill-rule="evenodd" clip-rule="evenodd" d="M63.3892 45.0633L115.723 74.1266L136.515 59.1392L63.3892 45.0633Z" fill="url(#paint2_linear_57_287)"/>
<path fill-rule="evenodd" clip-rule="evenodd" d="M184.386 24.6076L63.1863 44.7595L139.05 57.3165L184.386 24.6076Z" fill="url(#paint3_linear_57_287)"/>
<defs>
<linearGradient id="paint0_linear_57_287" x1="187.904" y1="117.688" x2="187.904" y2="4.52628" gradientUnits="userSpaceOnUse">
<stop stop-color="#201225"/>
<stop offset="1" stop-color="#B50DC0"/>
</linearGradient>
<linearGradient id="paint1_linear_57_287" x1="157.618" y1="117.421" x2="157.618" y2="42.7357" gradientUnits="userSpaceOnUse">
<stop stop-color="#201225"/>
<stop offset="1" stop-color="#53044F"/>
</linearGradient>
<linearGradient id="paint2_linear_57_287" x1="63.3529" y1="59.612" x2="136.457" y2="59.612" gradientUnits="userSpaceOnUse">
<stop stop-color="#AC300E"/>
<stop offset="1" stop-color="#64060D"/>
</linearGradient>
<linearGradient id="paint3_linear_57_287" x1="63.214" y1="40.9502" x2="184.425" y2="40.9502" gradientUnits="userSpaceOnUse">
<stop stop-color="#5E0E10"/>
<stop offset="1" stop-color="#E84A0D"/>
</linearGradient>
</defs>
</svg>
